<?xml version="1.0" encoding="UTF-8"?><svg id="Capa_2" xmlns="http://www.w3.org/2000/svg" viewBox="0 0 337.2 337.2"><defs><style>.cls-1{fill:#fdbf22;}.cls-2{fill:#1a1a1a;}</style></defs><g id="Capa_1-2"><circle class="cls-1" cx="168.6" cy="168.6" r="168.6"/><path class="cls-2" d="M238.46,261.33c-4.83,3.57-12.31,7.41-19.33,9.19-7.03,1.78-14.42,2.67-22.18,2.67-20.13,0-35.7-5.14-46.71-15.41-11.01-10.27-16.51-25.37-16.51-45.3v-69.52h-34.98v-37.75h18.81c8.93,0,16.17-7.24,16.17-16.17v-25.04h49.07l-32.71,41.21h74.86v37.75h-42.15v66.56c0,7.13,1.83,12.64,5.5,16.51,3.67,3.88,8.86,5.82,15.57,5.82,7.76,0,15.92-3.26,21.37-7.46l13.21,36.93Z"/></g></svg>